<svg width="235" height="56" viewBox="0 0 235 56" fill="none" xmlns="http://www.w3.org/2000/svg">
<path d="M226.457 11.5929L207.263 56H194.72L201.308 42.1901L188.258 11.6246H201.086L206.724 26.7648L207.389 29.077L213.946 11.6562L226.457 11.5929Z" fill="white"/>
<path d="M188.16 44.6287H176.503V27.1763C176.503 24.8113 176.166 23.0587 175.49 21.9184C174.814 20.7781 173.727 20.208 172.227 20.208C170.369 20.208 168.923 20.8309 167.888 22.0768C166.875 23.3226 166.347 25.0225 166.304 27.1763V44.6287H154.617V27.1763C154.617 24.8113 154.279 23.0587 153.603 21.9184C152.948 20.7781 151.861 20.208 150.341 20.208C148.44 20.208 146.973 20.8626 145.938 22.1718C144.924 23.481 144.418 25.3075 144.418 27.6514V44.6287H132.825V11.5926H142.105L142.675 13.4297C143.9 12.6484 145.315 11.9622 146.92 11.3709C148.525 10.7797 150.277 10.484 152.178 10.484C154.268 10.484 156.148 10.8219 157.816 11.4976C159.484 12.1733 160.92 13.113 162.123 14.3166C162.799 13.8098 163.538 13.3242 164.341 12.8596C165.164 12.395 166.051 11.9938 167.001 11.656C167.973 11.297 169.007 11.0119 170.105 10.8008C171.203 10.5896 172.386 10.484 173.653 10.484C176.06 10.484 178.172 10.8747 179.988 11.656C181.804 12.4162 183.313 13.5142 184.517 14.9501C185.721 16.3649 186.629 18.0858 187.241 20.113C187.853 22.1401 188.16 24.4101 188.16 26.9229V44.6287Z" fill="white"/>
<path d="M92.5315 28.1265C92.5315 25.7193 92.9749 23.4493 93.8618 21.3166C94.7487 19.1627 96.0051 17.294 97.631 15.7103C99.257 14.1054 101.21 12.8385 103.491 11.9094C105.771 10.9592 108.295 10.484 111.061 10.484C113.848 10.484 116.393 10.9486 118.694 11.8777C120.996 12.8068 122.96 14.0738 124.586 15.6786C126.212 17.2834 127.468 19.1627 128.355 21.3166C129.263 23.4493 129.717 25.7193 129.717 28.1265C129.717 30.5549 129.263 32.846 128.355 34.9998C127.468 37.1325 126.201 39.0013 124.554 40.6061C122.928 42.1898 120.964 43.4462 118.663 44.3753C116.361 45.2833 113.806 45.7373 110.998 45.7373C108.252 45.7373 105.74 45.2728 103.459 44.3437C101.2 43.4146 99.257 42.1582 97.631 40.5744C96.0262 38.9696 94.7698 37.1009 93.8618 34.9681C92.9749 32.8143 92.5315 30.5338 92.5315 28.1265ZM104.156 28.0948C104.156 29.3196 104.335 30.4282 104.694 31.4206C105.074 32.392 105.581 33.2261 106.215 33.9229C106.848 34.5986 107.587 35.1265 108.432 35.5066C109.277 35.8656 110.185 36.045 111.156 36.045C112.127 36.045 113.035 35.8656 113.88 35.5066C114.746 35.1265 115.485 34.5986 116.097 33.9229C116.709 33.2261 117.195 32.392 117.554 31.4206C117.913 30.4282 118.093 29.3196 118.093 28.0948C118.093 26.8912 117.913 25.8038 117.554 24.8324C117.195 23.8611 116.699 23.0375 116.065 22.3618C115.432 21.665 114.693 21.1371 113.848 20.7781C113.004 20.398 112.096 20.208 111.124 20.208C110.132 20.208 109.213 20.398 108.369 20.7781C107.524 21.1371 106.785 21.6544 106.151 22.3302C105.539 23.0059 105.053 23.84 104.694 24.8324C104.335 25.8038 104.156 26.8912 104.156 28.0948Z" fill="white"/>
<path d="M53.6003 28.1265C53.6003 25.7193 54.0437 23.4493 54.9306 21.3166C55.8175 19.1627 57.0739 17.294 58.6998 15.7103C60.3258 14.1054 62.279 12.8385 64.5595 11.9094C66.8401 10.9592 69.3634 10.484 72.1296 10.484C74.917 10.484 77.4615 10.9486 79.7631 11.8777C82.0648 12.8068 84.0285 14.0738 85.6545 15.6786C87.2804 17.2834 88.5368 19.1627 89.4237 21.3166C90.3317 23.4493 90.7857 25.7193 90.7857 28.1265C90.7857 30.5549 90.3317 32.846 89.4237 34.9998C88.5368 37.1325 87.2699 39.0013 85.6228 40.6061C83.9969 42.1898 82.0331 43.4462 79.7314 44.3753C77.4298 45.2833 74.8747 45.7373 72.0663 45.7373C69.3212 45.7373 66.8084 45.2728 64.5279 44.3437C62.2684 43.4146 60.3258 42.1582 58.6998 40.5744C57.095 38.9696 55.8386 37.1009 54.9306 34.9681C54.0437 32.8143 53.6003 30.5338 53.6003 28.1265ZM65.2247 28.0948C65.2247 29.3196 65.4042 30.4282 65.7631 31.4206C66.1432 32.392 66.65 33.2261 67.2835 33.9229C67.917 34.5986 68.656 35.1265 69.5007 35.5066C70.3453 35.8656 71.2533 36.045 72.2247 36.045C73.196 36.045 74.104 35.8656 74.9486 35.5066C75.8144 35.1265 76.5535 34.5986 77.1658 33.9229C77.7782 33.2261 78.2639 32.392 78.6228 31.4206C78.9818 30.4282 79.1613 29.3196 79.1613 28.0948C79.1613 26.8912 78.9818 25.8038 78.6228 24.8324C78.2639 23.8611 77.7676 23.0375 77.1342 22.3618C76.5007 21.665 75.7616 21.1371 74.917 20.7781C74.0723 20.398 73.1643 20.208 72.193 20.208C71.2005 20.208 70.282 20.398 69.4373 20.7781C68.5927 21.1371 67.8536 21.6544 67.2201 22.3302C66.6078 23.0059 66.1221 23.84 65.7631 24.8324C65.4042 25.8038 65.2247 26.8912 65.2247 28.0948Z" fill="white"/>
<path d="M38.8364 0H50.4291V44.6288H38.8364V0Z" fill="white"/>
<path d="M11.9411 18.3077H18.7827C19.1417 18.3077 19.5113 18.2338 19.8913 18.086C20.2714 17.917 20.6093 17.6847 20.9049 17.3891C21.2217 17.0724 21.475 16.6923 21.6651 16.2489C21.8763 15.8054 21.9818 15.2986 21.9818 14.7285C21.9818 14.2006 21.8868 13.7149 21.6968 13.2715C21.5067 12.8069 21.2533 12.4163 20.9366 12.0995C20.641 11.7828 20.3031 11.54 19.923 11.371C19.564 11.181 19.1945 11.086 18.8144 11.086H11.9411V18.3077ZM20.0814 35.1266C20.4192 35.1266 20.8204 35.0527 21.285 34.9049C21.7707 34.7571 22.2141 34.5248 22.6153 34.2081C23.0376 33.8913 23.3966 33.469 23.6922 32.9411C23.9879 32.4132 24.1357 31.7692 24.1357 31.009C24.1357 30.3755 24.0195 29.8159 23.7873 29.3303C23.5761 28.8235 23.2805 28.4012 22.9004 28.0633C22.5414 27.7254 22.1085 27.472 21.6017 27.3031C21.1161 27.1131 20.5987 27.0181 20.0497 27.0181H11.9411V35.1266H20.0814ZM0 44.6289V1.55206H19.5113C21.7496 1.55206 23.7661 1.81601 25.561 2.34392C27.377 2.87182 28.9185 3.65311 30.1854 4.6878C31.4524 5.72249 32.4237 7.01057 33.0994 8.55204C33.7752 10.0724 34.113 11.825 34.113 13.8099C34.113 14.6757 33.9652 15.5309 33.6696 16.3755C33.3951 17.2202 33.0255 18.0015 32.561 18.7194C32.0964 19.4163 31.558 20.0392 30.9456 20.5882C30.3544 21.1161 29.742 21.5068 29.1085 21.7601C30.0799 22.1402 31.009 22.6576 31.8958 23.3122C32.7827 23.9457 33.564 24.6847 34.2397 25.5294C34.9154 26.3529 35.4539 27.2714 35.8551 28.285C36.2563 29.2986 36.4569 30.3755 36.4569 31.5158C36.4569 33.9652 36.0029 36.0241 35.0949 37.6922C34.208 39.3604 33.0467 40.7118 31.6108 41.7465C30.1749 42.7812 28.5489 43.5203 26.733 43.9637C24.9381 44.4071 23.1327 44.6289 21.3167 44.6289H0Z" fill="white"/>
<path d="M234.472 38.1323C234.472 41.7086 231.573 44.6077 227.997 44.6077C224.421 44.6077 221.522 41.7086 221.522 38.1323C221.522 34.5561 224.421 31.657 227.997 31.657C231.573 31.657 234.472 34.5561 234.472 38.1323Z" fill="#DBFF00"/>
</svg>
